<?xml version="1.0" standalone="no"?>
<!DOCTYPE svg PUBLIC "-//W3C//DTD SVG 20010904//EN"
 "http://www.w3.org/TR/2001/REC-SVG-20010904/DTD/svg10.dtd">
<svg version="1.0" xmlns="http://www.w3.org/2000/svg"
 width="512.000000pt" height="512.000000pt" viewBox="0 0 512.000000 512.000000"
 preserveAspectRatio="xMidYMid meet">

<g transform="translate(0.000000,512.000000) scale(0.100000,-0.100000)"
fill="#000000" stroke="none">
<path d="M1075 5113 c6 -5 78 -64 160 -130 546 -439 965 -851 1142 -1126 104
-159 153 -311 134 -413 -14 -76 -42 -124 -104 -181 -105 -96 -256 -157 -621
-253 -442 -117 -596 -186 -689 -312 -94 -128 -62 -296 102 -536 l58 -84 -43
-63 c-121 -181 -177 -462 -178 -890 -1 -232 1 -256 23 -339 88 -337 296 -571
616 -699 138 -55 241 -70 425 -64 129 4 174 10 270 35 817 215 1538 1117 1695
2122 25 161 31 468 11 617 -103 782 -689 1518 -1556 1958 -327 165 -640 269
-999 331 -153 27 -465 45 -446 27z m566 -2949 c65 -20 163 -69 242 -122 305
-206 664 -689 669 -898 1 -57 -14 -74 -66 -74 -105 0 -325 147 -662 442 -215
189 -554 535 -554 567 0 12 86 71 127 86 52 19 178 18 244 -1z"/>
</g>
</svg>
